<svg id="Layer_1" data-name="Layer 1" xmlns="http://www.w3.org/2000/svg" viewBox="0 0 460.35 303.92"><defs><style>.cls-1{fill:#fff;}.cls-2{fill:#f89422;}</style></defs><title>mission</title><path class="cls-1" d="M285.53,230.44l-28.47,8c2.09,21.51-.57,41.8-10,60.9-8.59,17.48-20.9,31.73-38.94,39.63-33.91,14.85-64.56,7.12-91.65-16.19-19.28-16.59-31.24-38-36.3-63.09-5.78-28.63-2.58-55.83,12.86-81.09,17.21-28.16,49.18-42.7,81.37-36.94,24.36,4.36,43.27,17.57,58.11,36.81,5.55,7.2,10,15.24,15.16,23.19l27.48-7a30.11,30.11,0,0,0-1.14-3.29c-4.44-8.58-8.35-17.49-13.48-25.64C245.64,142,226,123.16,200.9,110.32a122.51,122.51,0,0,0-48.15-13.59c-28.92-1.94-55.22,5.51-78.17,23-35,26.74-51.11,63.54-53.71,106.62-2.18,36.15,6.41,70,25.09,101,15.6,25.94,36.46,46.53,64,59.7S166.4,404.31,196.3,396c33.9-9.43,57.66-31.27,73.95-61.72,14.84-27.75,19.54-57.65,17.28-88.8C287.17,240.56,286.24,235.69,285.53,230.44Z" transform="translate(-20.54 -96.43)"/><path class="cls-2" d="M412.21,182.79c-1.57.27-4.56-.47-4.85-1.39-.87-2.77,1.78-3.15,3.8-3.69q25.56-6.75,51.11-13.53c6.11-1.62,12.19-3.34,18.62-5.11a11,11,0,0,0-1.21-2.19c-7.75-7.77-15.37-15.68-23.38-23.18-4.33-4-9.89-4.88-15.64-3.38-9.4,2.44-18.94,4.52-28.1,7.69a24.94,24.94,0,0,0-11.25,7.93c-6.85,9.08-12.87,18.78-19,28.39a9.2,9.2,0,0,1-6.06,4.36q-40.21,10-80.39,20.18c-15.33,3.86-30.67,7.67-46,11.59-6.51,1.67-9.41,6.55-7.73,12.64,1.62,5.85,6.51,8.23,13.55,6.33,8.57-2.31,17-5,25.66-7.17,6.38-1.59,11.47-3.79,10.5-11.77a2.11,2.11,0,0,1,1.26-1.69A2.61,2.61,0,0,1,295,210a7.94,7.94,0,0,1,.79,2.35c1.64,5.43,1.63,5.4,7.13,3.85q39.07-11,78.16-21.91a8.07,8.07,0,0,1,5.15.18q15,7.24,29.8,14.92c4.86,2.52,9.87,4,15.24,2.64,10.19-2.54,20.38-5.13,30.43-8.18,5.93-1.8,9.73-6.19,11.35-12.31.64-2.41,1.39-4.79,2-7.21,1.05-4,2.06-8.08,3.25-12.77-4.19.68-7.46,1.17-10.72,1.73C449.14,176.45,430.69,179.73,412.21,182.79Z" transform="translate(-20.54 -96.43)"/><path class="cls-1" d="M171.11,232.19a59,59,0,0,1,8.14-4.18c7.23-2.8,14.55-5.36,22.64-8.32-3.61-3.8-6.73-7.72-10.46-10.92-13.77-11.8-33.5-9.73-44.77,4.46-16.27,20.47-6.75,55.82,17.5,65.58,24.51,9.87,45-11.26,43.67-33.51-1.37.29-2.68.65-4,.83-9.47,1.22-18.92,2.69-28.43,3.47a8,8,0,0,1-8.87-6.07C165.21,238.56,166.68,234.76,171.11,232.19Z" transform="translate(-20.54 -96.43)"/><path class="cls-2" d="M308.16,245.15c.18.7.37,1.4.56,2.09a414.72,414.72,0,0,0,89.73-24l-.54-2A411.2,411.2,0,0,0,308.16,245.15Z" transform="translate(-20.54 -96.43)"/><path class="cls-2" d="M236.68,220.18c-20.74,6.77-42.19,9.12-60.81,20.2,21.83.32,41.72-8.33,62.93-12.78C238,224.89,237.44,222.83,236.68,220.18Z" transform="translate(-20.54 -96.43)"/><path class="cls-2" d="M362.93,145.58c-21.19,3.42-41.05,8.77-60.67,18.95C313,167.48,359.74,152.88,362.93,145.58Z" transform="translate(-20.54 -96.43)"/></svg>