<svg id="Layer_1" data-name="Layer 1" xmlns="http://www.w3.org/2000/svg" viewBox="0 0 326.97 328.92"><defs><style>.cls-1{fill:#f89422;}.cls-2{fill:#fff;}</style></defs><title>value</title><path class="cls-1" d="M326.69,102.69h0a51.22,51.22,0,0,0-72.45,0h0a6.4,6.4,0,0,1-9.05,0h0a51.22,51.22,0,0,0-72.45,0h0a51.21,51.21,0,0,0,0,72.44l72.45,72.45a6.4,6.4,0,0,0,9.05,0l72.45-72.45A51.23,51.23,0,0,0,326.69,102.69Z" transform="translate(-86.23 -87.68)"/><path class="cls-2" d="M235.07,305.86h0c-.27-.24-1.09-.9-1.84-1.64-5.47-5.49-10.9-11-16.41-16.48-5.17-5.12-11.68-9.05-18.68-7.71-12.95,2.47-21.24-3.41-28.56-12.62-1.37-1.72-3.19-3.08-4.66-4.73-6.72-7.51-14.17-13.65-25.64-13.23v-5.51c0-11.88,0-23.75,0-35.62-.06-16.16-11.4-28.1-26.56-28.06S86.42,192.32,86.4,208.5c0,31,0,62.05-.17,93.07-.08,12.13,4.21,22.05,12.83,30.51,15.44,15.16,30.28,30.94,46.12,45.65,6.59,6.12,8.94,12.36,8.31,21-.89,12.22,4.9,17.84,17.1,17.85q32.24,0,64.48,0h8.61V314.46A8.61,8.61,0,0,0,235.07,305.86Zm-7.79,40.07c-1.12,15.9-.25,31.94-.26,47.91v5.68H170.13c0-5.51.32-11-.14-16.41a12.13,12.13,0,0,0-3.12-6.94c-19.28-19.62-38.94-38.87-58-58.72a21.85,21.85,0,0,1-5.49-13.6c-.42-32.13-.19-64.27-.07-96.4,0-6.09,4.06-10.19,9.57-10.25,5.11-.06,9.36,4.1,9.42,9.9q.23,24,0,48a10.4,10.4,0,0,1-1.94,5.13c-7.32,11.18-6.27,23.85,3.12,33.4q15.66,15.91,31.55,31.59c4.29,4.26,9.41,4.41,13,.6,3.38-3.58,3-8.41-1.21-12.63-9.48-9.55-19-19-28.52-28.55-1.12-1.11-2.29-2.19-3.3-3.4-3.29-3.93-3.23-8.68.06-12a8.43,8.43,0,0,1,12.33,0c7,6.69,13.92,13.4,20.47,20.49,5.78,6.26,12.66,9.08,20.86,7.42,9.1-1.83,15.07,1.92,21.85,7.79C223.45,316.07,228.47,329.06,227.28,345.93Z" transform="translate(-86.23 -87.68)"/><path class="cls-2" d="M413,208.5c0-16.18-11.23-28.2-26.32-28.24s-26.5,11.9-26.56,28.06c0,11.87,0,23.74,0,35.62v5.51c-11.47-.42-18.92,5.72-25.64,13.23-1.47,1.65-3.29,3-4.66,4.73-7.32,9.21-15.61,15.09-28.56,12.62-7-1.34-13.51,2.59-18.68,7.71-5.51,5.45-10.94,11-16.42,16.48-.74.74-1.57,1.4-1.84,1.64h0a8.6,8.6,0,0,0-8.6,8.6V416.6h8.6q32.25,0,64.49,0c12.2,0,18-5.63,17.1-17.85-.64-8.65,1.71-14.89,8.31-21,15.84-14.71,30.68-30.49,46.12-45.65,8.62-8.46,12.91-18.38,12.83-30.51C413,270.55,413.07,239.52,413,208.5Zm-17,95.35a21.85,21.85,0,0,1-5.49,13.6c-19,19.85-38.7,39.1-58,58.72a12.11,12.11,0,0,0-3.11,6.94c-.46,5.41-.14,10.9-.14,16.41H272.41c0-2.26,0-4,0-5.68,0-16,.87-32-.25-47.91-1.19-16.87,3.83-29.86,16.72-41,6.77-5.87,12.75-9.62,21.85-7.79,8.2,1.66,15.08-1.16,20.86-7.42,6.55-7.09,13.51-13.8,20.46-20.49,3.8-3.66,8.88-3.48,12.33,0,3.3,3.33,3.35,8.08.07,12-1,1.21-2.18,2.29-3.3,3.4-9.51,9.52-19.05,19-28.52,28.55-4.19,4.22-4.59,9-1.22,12.63,3.59,3.81,8.71,3.66,13-.6Q360.24,309.47,376,293.6c9.39-9.55,10.44-22.22,3.12-33.4a10.41,10.41,0,0,1-1.95-5.13q-.21-24,0-48c.06-5.8,4.31-10,9.42-9.9,5.51.06,9.55,4.16,9.57,10.25C396.22,239.58,396.45,271.72,396,303.85Z" transform="translate(-86.23 -87.68)"/></svg>