<svg id="Layer_1" data-name="Layer 1" xmlns="http://www.w3.org/2000/svg" viewBox="0 0 460.84 291.72"><defs><style>.cls-1{fill:#f89422;}.cls-2{fill:#fff;}</style></defs><title>vision</title><path class="cls-1" d="M249.78,154.37a87.94,87.94,0,1,0,87.94,87.93A87.94,87.94,0,0,0,249.78,154.37Zm0,150.63a62.7,62.7,0,1,1,62.7-62.7A62.7,62.7,0,0,1,249.78,305Z" transform="translate(-19.3 -102.73)"/><path class="cls-2" d="M371.43,173.85A139.72,139.72,0,0,0,215,107.12h-.06a139.61,139.61,0,0,0,0,270.35H215a139.44,139.44,0,0,0,105.55-14.84A34.7,34.7,0,0,1,313,343.56a1.11,1.11,0,0,0-.21-.66l-3.58-3.58a113.77,113.77,0,1,1,36.66-36.11l2.83,2.84a1.33,1.33,0,0,0,.7.2A34.66,34.66,0,0,1,368.24,313c.45.32.89.67,1.33,1,.63-1.06,1.26-2.13,1.86-3.22a139.71,139.71,0,0,0,0-136.91Z" transform="translate(-19.3 -102.73)"/><path class="cls-1" d="M249.78,206a36.47,36.47,0,0,0-11.26,1.79A24.1,24.1,0,0,1,218,244.57a24.67,24.67,0,0,1-4.49-.42A36.31,36.31,0,1,0,249.78,206Z" transform="translate(-19.3 -102.73)"/><path class="cls-2" d="M281,106.24a195.76,195.76,0,0,0-31.23-3.51A249,249,0,0,0,215,107.12h-.06C91.31,131.6,19.3,242.3,19.3,242.3S91.31,353,214.9,377.48H215a249,249,0,0,0,34.83,4.39A195.76,195.76,0,0,0,281,378.37a231.18,231.18,0,0,0,42.29-12.62l-.23-.22a36.72,36.72,0,0,1-2.57-2.88A34.7,34.7,0,0,1,313,343.56a1.11,1.11,0,0,0-.21-.66l0,0c-21.38,8.44-42.39,13.08-62.68,13.83-29.12-1.72-58-9.23-85.84-22.31a277.86,277.86,0,0,1-33-18.38,318.39,318.39,0,0,1-33.51-25A354.75,354.75,0,0,1,50.57,242.3a355.32,355.32,0,0,1,47.17-48.7,319.21,319.21,0,0,1,33.5-25,278.86,278.86,0,0,1,33-18.39,233.88,233.88,0,0,1,85.84-22.31c25.22.92,51.56,7.87,78.34,20.66a306.1,306.1,0,0,1,43,25.28q12.39,8.63,24.69,18.76a457,457,0,0,1,51.3,49.69,456.07,456.07,0,0,1-51.3,49.7q-12.3,10.13-24.69,18.76c-1.06.74-2.12,1.48-3.19,2.2.45.32.89.67,1.33,1a35.34,35.34,0,0,1,2.66,2.4l14.43,14.43c56.88-39.87,93.47-88.51,93.47-88.51S394.2,128.09,281,106.24Z" transform="translate(-19.3 -102.73)"/><path class="cls-1" d="M394.85,357.73l-32-32a21.43,21.43,0,0,0-14.12-6.27,14.24,14.24,0,0,1-9.4-4.06l-22.18-22.19L299.5,310.88l22.66,22.66a14.17,14.17,0,0,1,4,9,21.42,21.42,0,0,0,6.24,13.6l32,32a21.52,21.52,0,0,0,30.43,0h0A21.51,21.51,0,0,0,394.85,357.73Z" transform="translate(-19.3 -102.73)"/></svg>